<?xml version="1.0" encoding="utf-8"?>
<!-- Generator: Adobe Illustrator 24.1.1, SVG Export Plug-In . SVG Version: 6.00 Build 0)  -->
<svg version="1.1" id="Layer_1" xmlns="http://www.w3.org/2000/svg" xmlns:xlink="http://www.w3.org/1999/xlink" x="0px" y="0px"
	 viewBox="0 0 512 512" style="enable-background:new 0 0 512 512;" xml:space="preserve">
<style type="text/css">
	.st0{fill:#76C2AF;}
	.st1{fill:#65A192;}
	.st2{fill:#FFFFFF;}
</style>
<g id="XMLID_1_">
	<path id="XMLID_3_" class="st0" d="M256,0c141,0,256,115,256,256S397,512,256,512S0,397,0,256S115,0,256,0"/>
	<path id="XMLID_4_" class="st1" d="M256,127.6c-59.9,0-110.3,41.7-123.7,96.9c-38.6,6.3-67.7,39.4-67.7,79.6
		c0,44.1,36.2,80.3,80.3,80.3h63.8c8.7,0,15.8-7.1,15.8-15.8v-44.1c0-6.3-5.5-11.8-11.8-11.8h-24.4c-11.8,0-15-7.9-7.1-17.3
		l61.4-78.8c3.9-4.7,9.5-7.1,14.2-7.1c4.7,0,10.2,2.4,13.4,7.1l61.4,78.8c7.9,9.5,4.7,17.3-7.1,17.3h-24.4
		c-6.3,0-11.8,5.5-11.8,11.8v44.1c0,8.7,7.1,15.8,15.8,15.8h80.3c35.4,0,63.8-29.1,63.8-63.8c0-35.4-28.4-63.8-63-63.8
		C384.4,185.9,326.1,127.6,256,127.6"/>
	<path id="XMLID_5_" class="st2" d="M384.4,240.2c0-70.1-57.5-128.4-128.4-128.4c-59.9,0-110.3,41.7-123.7,96.9
		c-38.6,6.3-67.7,39.4-67.7,79.6c0,44.1,36.2,80.3,80.3,80.3h63.8c8.7,0,15.8-7.1,15.8-15.8v-44.1c0-6.3-5.5-11.8-11.8-11.8h-24.4
		c-11.8,0-15-7.9-7.1-17.3l61.4-78.8c7.9-9.5,20.5-9.5,28.4,0l61.4,78.8c7.9,9.5,4.7,17.3-7.1,17.3h-24.4c-6.3,0-11.8,5.5-11.8,11.8
		v44.1c0,8.7,7.1,15.8,15.8,15.8h80.3c35.4,0,63.8-29.1,63.8-63.8C447.4,268.6,419.1,240.2,384.4,240.2z"/>
</g>
</svg>
